<svg width="27" height="29" viewBox="0 0 27 29" fill="none" xmlns="http://www.w3.org/2000/svg">
<path fill-rule="evenodd" clip-rule="evenodd" d="M14.8997 -0.585646L25.1723 5.36069C26.1267 5.91317 26.7147 6.93418 26.7147 8.03912V19.9318C26.7147 21.0367 26.1267 22.0578 25.1723 22.6102L14.8997 28.5566C13.9453 29.109 12.7694 29.109 11.815 28.5566L1.54237 22.6102C0.587949 22.0578 0 21.0367 0 19.9318V8.03912C0 6.93418 0.587949 5.91317 1.54237 5.36069L11.815 -0.585646C12.7694 -1.13812 13.9453 -1.13812 14.8997 -0.585646ZM13.3573 9.3463L9.35014 11.6659V16.3051L13.3573 18.6246L17.3645 16.3051V11.6659L13.3573 9.3463Z" fill="white"/>
</svg>
